<svg width="18" height="15" viewBox="0 0 18 15" fill="none" xmlns="http://www.w3.org/2000/svg">
<path d="M11.0306 0.219781L17.7806 6.96978C17.8504 7.03944 17.9057 7.12215 17.9434 7.2132C17.9812 7.30425 18.0006 7.40185 18.0006 7.50041C18.0006 7.59897 17.9812 7.69656 17.9434 7.78761C17.9057 7.87866 17.8504 7.96138 17.7806 8.03103L11.0306 14.781C10.8899 14.9218 10.699 15.0008 10.5 15.0008C10.301 15.0008 10.1101 14.9218 9.96937 14.781C9.82864 14.6403 9.74958 14.4494 9.74958 14.2504C9.74958 14.0514 9.82864 13.8605 9.96937 13.7198L15.4397 8.25041L0.75 8.25041C0.551088 8.25041 0.360322 8.17139 0.21967 8.03074C0.0790178 7.89008 0 7.69932 0 7.50041C0 7.30149 0.0790178 7.11073 0.21967 6.97008C0.360322 6.82942 0.551088 6.75041 0.75 6.75041L15.4397 6.75041L9.96937 1.28103C9.82864 1.1403 9.74958 0.94943 9.74958 0.750406C9.74958 0.551383 9.82864 0.360512 9.96937 0.219781C10.1101 0.0790501 10.301 -1.14441e-05 10.5 -1.14441e-05C10.699 -1.14441e-05 10.8899 0.0790501 11.0306 0.219781Z" fill="white"/>
</svg>
