<svg width="13" height="16" viewBox="0 0 13 16" fill="none" xmlns="http://www.w3.org/2000/svg">
<path d="M6.5 3.42861C5.91565 3.42861 5.34441 3.59618 4.85854 3.91013C4.37267 4.22408 3.99398 4.67031 3.77036 5.19239C3.54673 5.71447 3.48822 6.28895 3.60222 6.84318C3.71623 7.39742 3.99762 7.90652 4.41082 8.3061C4.82402 8.70569 5.35047 8.97781 5.9236 9.08805C6.49672 9.19829 7.09078 9.14171 7.63066 8.92546C8.17053 8.70921 8.63196 8.343 8.95661 7.87314C9.28126 7.40328 9.45455 6.85087 9.45455 6.28578C9.45455 5.52801 9.14326 4.80128 8.58918 4.26545C8.03509 3.72963 7.28359 3.42861 6.5 3.42861ZM6.5 8.00008C6.14939 8.00008 5.80665 7.89954 5.51513 7.71117C5.2236 7.5228 4.99639 7.25506 4.86221 6.94181C4.72804 6.62856 4.69293 6.28388 4.76133 5.95133C4.82974 5.61879 4.99857 5.31333 5.24649 5.07358C5.49441 4.83383 5.81028 4.67056 6.15416 4.60441C6.49803 4.53827 6.85447 4.57222 7.17839 4.70197C7.50232 4.83172 7.77918 5.05145 7.97397 5.33336C8.16876 5.61528 8.27273 5.94672 8.27273 6.28578C8.27273 6.74044 8.08596 7.17648 7.75351 7.49797C7.42106 7.81947 6.97016 8.00008 6.5 8.00008ZM6.5 0C4.77669 0.00189054 3.12453 0.664747 1.90596 1.84315C0.687402 3.02155 0.00195497 4.61927 0 6.28578C0 8.52866 1.07176 10.9058 3.10227 13.1608C4.01465 14.1798 5.04153 15.0974 6.16392 15.8966C6.26328 15.9639 6.38164 16 6.50295 16C6.62426 16 6.74263 15.9639 6.84199 15.8966C7.96231 15.0971 8.9872 14.1795 9.89773 13.1608C11.9253 10.9058 13 8.52866 13 6.28578C12.998 4.61927 12.3126 3.02155 11.094 1.84315C9.87547 0.664747 8.22331 0.00189054 6.5 0ZM6.5 14.7144C5.27903 13.7859 1.18182 10.3751 1.18182 6.28578C1.18182 4.92179 1.74212 3.61367 2.73948 2.64919C3.73683 1.68471 5.08953 1.14287 6.5 1.14287C7.91047 1.14287 9.26317 1.68471 10.2605 2.64919C11.2579 3.61367 11.8182 4.92179 11.8182 6.28578C11.8182 10.3737 7.72097 13.7859 6.5 14.7144Z" fill="#C4213B"/>
</svg>
