<svg width="35" height="23" viewBox="0 0 35 23" fill="none" xmlns="http://www.w3.org/2000/svg">
<path d="M34.8994 11.0343C34.8483 10.9207 33.6131 8.21962 30.8671 5.51281C27.2081 1.90612 22.5867 0 17.5 0C12.4133 0 7.79187 1.90612 4.13291 5.51281C1.38686 8.21962 0.145819 10.925 0.100611 11.0343C0.0342761 11.1813 0 11.3405 0 11.5014C0 11.6624 0.0342761 11.8216 0.100611 11.9686C0.151653 12.0822 1.38686 14.7818 4.13291 17.4886C7.79187 21.0939 12.4133 23 17.5 23C22.5867 23 27.2081 21.0939 30.8671 17.4886C33.6131 14.7818 34.8483 12.0822 34.8994 11.9686C34.9657 11.8216 35 11.6624 35 11.5014C35 11.3405 34.9657 11.1813 34.8994 11.0343ZM17.5 17.25C16.3463 17.25 15.2185 16.9128 14.2592 16.281C13.2999 15.6491 12.5522 14.7511 12.1107 13.7004C11.6692 12.6498 11.5537 11.4936 11.7787 10.3782C12.0038 9.26284 12.5594 8.23829 13.3752 7.43414C14.191 6.62998 15.2304 6.08235 16.362 5.86048C17.4935 5.63862 18.6664 5.75249 19.7323 6.18769C20.7982 6.6229 21.7093 7.35989 22.3502 8.30547C22.9912 9.25105 23.3333 10.3628 23.3333 11.5C23.3333 13.025 22.7188 14.4875 21.6248 15.5659C20.5308 16.6442 19.0471 17.25 17.5 17.25Z" fill="white"/>
</svg>
