<svg width="15" height="15" viewBox="0 0 15 15" fill="none" xmlns="http://www.w3.org/2000/svg">
<path d="M11.7994 8.71442L9.49149 7.56058C9.40064 7.51531 9.29946 7.49481 9.19816 7.50114C9.09686 7.50747 8.99901 7.54041 8.91451 7.59663L7.85503 8.30336C7.36868 8.03603 6.96844 7.63583 6.70108 7.14952L7.40788 6.09014C7.46411 6.00565 7.49705 5.90782 7.50338 5.80652C7.50971 5.70523 7.48921 5.60406 7.44394 5.51322L6.28998 3.20553C6.24215 3.10895 6.16822 3.02769 6.07657 2.97097C5.98492 2.91425 5.87921 2.88434 5.77142 2.88462C5.0063 2.88462 4.27252 3.18853 3.73149 3.7295C3.19047 4.27047 2.88653 5.00418 2.88653 5.76923C2.88844 7.45175 3.55773 9.06481 4.74756 10.2545C5.9374 11.4443 7.55061 12.1135 9.23329 12.1154C9.61214 12.1154 9.98728 12.0408 10.3373 11.8958C10.6873 11.7508 11.0053 11.5384 11.2732 11.2705C11.5411 11.0026 11.7536 10.6846 11.8986 10.3347C12.0436 9.98469 12.1182 9.60958 12.1182 9.23077C12.1183 9.12359 12.0885 9.01851 12.0322 8.9273C11.9759 8.8361 11.8953 8.76239 11.7994 8.71442ZM9.23329 10.9615C7.85654 10.96 6.53662 10.4125 5.56311 9.43906C4.5896 8.46564 4.04201 7.14585 4.04049 5.76923C4.04037 5.36908 4.17893 4.98125 4.43259 4.67174C4.68624 4.36223 5.03931 4.15017 5.43173 4.07163L6.25969 5.73029L5.55505 6.77885C5.5024 6.85782 5.47005 6.94857 5.46086 7.04304C5.45168 7.13752 5.46595 7.23279 5.5024 7.32043C5.91522 8.30148 6.69575 9.08193 7.67689 9.49471C7.7648 9.53278 7.86081 9.54837 7.95626 9.54006C8.0517 9.53175 8.14357 9.49981 8.22358 9.44712L9.27729 8.74471L10.9361 9.5726C10.857 9.96542 10.6439 10.3186 10.3334 10.5719C10.0229 10.8252 9.63405 10.9629 9.23329 10.9615ZM7.50236 1.78612e-07C6.20738 -0.000282376 4.93438 0.334679 3.80728 0.972281C2.68018 1.60988 1.73737 2.5284 1.07061 3.63844C0.403861 4.74847 0.035882 6.0122 0.00249395 7.30663C-0.0308941 8.60105 0.271446 9.88208 0.880087 11.025L0.0614987 13.4805C-0.00630734 13.6838 -0.0161476 13.902 0.0330809 14.1106C0.0823095 14.3192 0.188661 14.5099 0.340216 14.6615C0.491771 14.813 0.68254 14.9193 0.891141 14.9686C1.09974 15.0178 1.31793 15.0079 1.52125 14.9401L3.97702 14.1216C4.98296 14.6566 6.09757 14.9554 7.23625 14.9954C8.37492 15.0353 9.50774 14.8154 10.5487 14.3522C11.5897 13.889 12.5114 13.1948 13.244 12.3223C13.9766 11.4497 14.5008 10.4217 14.7767 9.31639C15.0526 8.21104 15.0731 7.05736 14.8366 5.94291C14.6 4.82847 14.1127 3.78255 13.4115 2.88455C12.7103 1.98656 11.8138 1.26009 10.7899 0.76028C9.76603 0.260472 8.64173 0.000467474 7.50236 1.78612e-07ZM7.50236 13.8462C6.38661 13.8469 5.29044 13.5531 4.32465 12.9945C4.25394 12.9535 4.17532 12.928 4.094 12.9196C4.01268 12.9113 3.93053 12.9203 3.85297 12.9462L1.15559 13.8462L2.05496 11.149C2.08088 11.0715 2.09005 10.9894 2.08184 10.9081C2.07363 10.8268 2.04825 10.7482 2.00736 10.6774C1.30775 9.46797 1.02686 8.06148 1.20826 6.67613C1.38967 5.29077 2.02322 4.004 3.01064 3.01543C3.99807 2.02685 5.28416 1.39173 6.66941 1.2086C8.05467 1.02546 9.46164 1.30455 10.6721 2.00256C11.8825 2.70057 12.8288 3.77849 13.364 5.0691C13.8992 6.35971 13.9936 7.79086 13.6323 9.14054C13.2711 10.4902 12.4746 11.683 11.3662 12.5338C10.2578 13.3846 8.89966 13.8459 7.50236 13.8462Z" fill="white"/>
</svg>
